<?xml version="1.0" encoding="UTF-8" ?>
<svg enable-background="new 0 0 100 100" version="1.1" viewBox="0 0 100 100" width="100px" height="100px" xml:space="preserve" xmlns="http://www.w3.org/2000/svg">
  <style type="text/css">
	.st0{fill:#0a8468;}
</style>

  <g transform="translate(0 435) scale(.1 -.1)">
    <path class="st0" d="m989.1 3920.2c-8.4 104.6-57.8 174.9-137.3 196-19.6 5.2-62.2 6.9-88.7 3.8-63.3-7.8-110.4-28.8-147.4-66.2-31.3-31.3-48-66.4-50.4-104.8l-1.1-18.3-30-0.2c-33-0.2-54.7-3.4-77.5-11.7-30-10.7-51.3-24-70.9-44-22.4-23-35.3-44.3-48.4-80.4-1.1-3.1-2.7-1.5-8.4 9.6-16.3 31.1-38.2 59.5-72.6 95-23 23.9-34.8 38.3-46.3 56.7-9.2 14.8-24.7 46.5-32.2 66.2-7.9 20.8-7.1 24.2 4.4 17.7 21.3-11.9 62.4-8.1 76.2 7.3 2.1 2.3 7.9 6.3 12.7 8.6 8.2 4.3 20.9 16.4 20.9 20 0 0.8 3.7 3.8 8.3 6.7 9.2 6 16.9 16 20.3 26.5 1.4 3.9 3.7 8.1 5.2 9.4 4.4 3.7 6.5 8.7 8.5 20 3 18.4-5.4 42.1-21.2 59.3-9.7 10.6-54.5 45.3-72.3 56.1-17.7 10.5-35.6 14.2-59.2 12.1-33.6-3.3-68.3-23.8-110.2-65.1-25-24.8-39-47.1-48.8-77.8-13.2-41.6-15.3-75.1-9.9-154.5 6.9-101.8 18.2-168.6 42.2-250.8 30.9-106 57.4-153.6 119.8-216 28.4-28.4 58-51.7 78.2-61.5 16.1-8 24.3-8 55.4-0.2 34.4 8.9 37.9 9.1 80.7 3.5 63.2-7.9 86.8-9.4 128.4-8.3 40.9 1.2 57.1 3.7 88.6 14.3 68.7 22.6 127.6 71.4 176.8 146.5 15.6 23.6 35.5 62.6 45.5 88.5l7.1 18.2 14 4.4c50.7 16.2 90.9 46.7 115.6 87.8 19 31.7 27.9 77.7 24 125.6zm-72.7-126.6c-19.2-23.2-61.1-46.5-98.9-54.9-8.9-1.9-15-10.6-22.3-30.9-3.7-10.6-13.1-32.1-21.1-47.8-28.8-57.8-65.5-103.5-109.3-136.5-18.2-13.9-55.3-32.9-76-39.2-45.5-13.8-96.4-14.4-189.7-2.7-48.4 6.1-64.4 5.6-98.7-3.1l-25.2-6.3-13.2 7.7c-27.5 16.5-73.2 59.5-98.3 92.5-26.5 34.8-38.6 58.4-55.1 106.8-32.5 95.4-47.7 170.1-55.5 276.5-5.2 68.7-4.1 115 3.8 146.3 4.2 16.7 18.6 44.1 30.2 57.6 25.7 30.3 69.1 61.6 91.7 66.4 10.6 2.3 29.8 0 38.4-4.4 11.8-5.9 61.9-44.5 68.8-53 3-3.6 6.7-10.2 8-14.2 2.3-7.3 2.3-7.7-3.6-13.4-4.2-4.5-6-7.9-6-12.5 0-9.4-1.7-12.5-7.1-12.5-2.6 0-7.8-1.7-11.3-4-5-3.1-6.7-5.8-7.7-11.6-1.3-8.2-5-11.3-13.6-11.3-6.3-0.2-12.1-4.6-15.4-11.9-2.1-5-3.2-5.4-12.4-5.4-11.6 0-13.9 1.2-15.8 6.9-1.7 5.8-9 11.9-14.6 12.3-9 0.8-11.3 0-17.6-5.5-3.5-3.1-11-7.5-16.6-9.8-16.9-7.3-24.5-20.2-21.5-36.9 2.3-11.9 16.9-49 28.8-72.4 19.6-39.2 33.4-58.6 65.3-91.4 47.1-48.6 66.3-76.8 89.3-131.5 12.5-29.8 18-36.5 29.4-36.5 13.6 0.2 16.7 5.8 23.4 41.3 5 27 10 42 20.4 62.6 19.7 38.6 49.9 62 96.2 75.2 13.6 3.9 19.2 4.3 63.9 4.3 53.2 0 55.3 0.3 59.5 10.5 2.1 5 1.9 8.5-0.9 21.3-9.4 43.6 14.9 92.6 61.4 124.1 30.2 20.4 64.3 31.1 110.4 35.3 54.2 4.6 90.8-6.3 121.2-36.6 31.7-31.5 48.5-77.4 51-138.3 2-49.3-7.6-81.2-33.7-113.1z" />
    <path class="st0" d="m916.4 3793.6c-19.2-23.2-61.1-46.5-98.9-54.9-8.9-1.9-15-10.6-22.3-30.9-3.7-10.6-13.1-32.1-21.1-47.8-28.8-57.8-65.5-103.5-109.3-136.5-18.2-13.9-55.3-32.9-76-39.2-45.5-13.8-96.4-14.4-189.7-2.7-48.4 6.1-64.4 5.6-98.7-3.1l-25.2-6.3-13.2 7.7c-27.5 16.5-73.2 59.5-98.3 92.5-26.5 34.8-38.6 58.4-55.1 106.8-32.5 95.4-47.7 170.1-55.5 276.5-5.2 68.7-4.1 115 3.8 146.3 4.2 16.7 18.6 44.1 30.2 57.6 25.7 30.3 69.1 61.6 91.7 66.4 10.6 2.3 29.8 0 38.4-4.4 11.8-5.9 61.9-44.5 68.8-53 3-3.6 6.7-10.2 8-14.2 2.3-7.3 2.3-7.7-3.6-13.4-4.2-4.5-6-7.9-6-12.5 0-9.4-1.7-12.5-7.1-12.5-2.6 0-7.8-1.7-11.3-4-5-3.1-6.7-5.8-7.7-11.6-1.3-8.2-5-11.3-13.6-11.3-6.3-0.2-12.1-4.6-15.4-11.9-2.1-5-3.2-5.4-12.4-5.4-11.6 0-13.9 1.2-15.8 6.9-1.7 5.8-9 11.9-14.6 12.3-9 0.8-11.3 0-17.6-5.5-3.5-3.1-11-7.5-16.6-9.8-16.9-7.3-24.5-20.2-21.5-36.9 2.3-11.9 16.9-49 28.8-72.4 19.6-39.2 33.4-58.6 65.3-91.4 47.1-48.6 66.3-76.8 89.3-131.5 12.5-29.8 18-36.5 29.4-36.5 13.6 0.2 16.7 5.8 23.4 41.3 5 27 10 42 20.4 62.6 19.7 38.6 49.9 62 96.2 75.2 13.6 3.9 19.2 4.3 63.9 4.3 53.2 0 55.3 0.3 59.5 10.5 2.1 5 1.9 8.5-0.9 21.3-9.4 43.6 14.9 92.6 61.4 124.1 30.2 20.4 64.3 31.1 110.4 35.3 54.2 4.6 90.8-6.3 121.2-36.6 31.7-31.5 48.5-77.4 51-138.3 2-49.3-7.6-81.2-33.7-113.1z" />
  </g>

</svg>