<?xml version="1.0" encoding="UTF-8" ?>
<svg enable-background="new 0 0 128 128" version="1.1" viewBox="0 0 128 128" width="128px" height="128px" xml:space="preserve" xmlns="http://www.w3.org/2000/svg">
  <style type="text/css">
	.st0{fill:#a04c5b;}
	.st1{display:none;}
	.st2{display:inline;opacity:0.25;fill:#a04c5b;enable-background:new    ;}
</style>

  <rect class="st0" x="92" y="28" width="8" height="8" />
  <rect class="st0" x="28" y="16" width="8" height="8" />
  <rect class="st0" x="44" y="40" width="8" height="8" />
  <path class="st0" d="m112 40v35.2c-3.3-2.3-7.3-4.2-12-5.8v-25.4h-8v23.1c-8.7-2.1-18.4-3.1-28-3.1-4 0-8 0.2-12 0.5v-8.5h-8v9.5c-2.7 0.4-5.4 1-8 1.6v-35.1h-8v37.4c-4.7 1.6-8.7 3.5-12 5.8v-19.2h-8v32c0 15.6 28.9 24 56 24s56-8.4 56-24v-48h-8zm-96 48c0-5 10.3-11.5 28-14.4v28.9c-17.7-3-28-9.5-28-14.5zm72 13.7v-21.7h-8v23c-4.9 0.6-10.2 1-16 1-4.2 0-8.2-0.2-12-0.5v-31c3.8-0.3 7.8-0.5 12-0.5 29.7 0 48 9.3 48 16 0 4.6-8.8 10.5-24 13.7z" />

  <g class="st1">
    <path class="st2" d="m120 8v112h-112v-112h112zm8-8h-128v128h128v-128z" />
  </g>
</svg>